<mxfile host="app.diagrams.net" agent="Mozilla/5.0 (Windows NT 10.0; Win64; x64) AppleWebKit/537.36 (KHTML, like Gecko) Chrome/135.0.0.0 Safari/537.36" version="26.2.13">
  <diagram name="第 1 页" id="ebKtBLG-zBRjMweHWMIv">
    <mxGraphModel dx="584" dy="340" grid="1" gridSize="10" guides="1" tooltips="1" connect="1" arrows="1" fold="1" page="1" pageScale="1" pageWidth="827" pageHeight="1169" math="0" shadow="0">
      <root>
        <mxCell id="0" />
        <mxCell id="1" parent="0" />
        <mxCell id="uPsVYYfBhrXC80VGJ2zY-2" value="IDLE" style="ellipse;whiteSpace=wrap;html=1;aspect=fixed;" vertex="1" parent="1">
          <mxGeometry x="120" y="120" width="100" height="100" as="geometry" />
        </mxCell>
        <mxCell id="uPsVYYfBhrXC80VGJ2zY-43" value="" style="edgeStyle=orthogonalEdgeStyle;rounded=0;orthogonalLoop=1;jettySize=auto;html=1;exitX=0.5;exitY=1;exitDx=0;exitDy=0;entryX=0.5;entryY=0;entryDx=0;entryDy=0;" edge="1" parent="1" source="uPsVYYfBhrXC80VGJ2zY-3" target="uPsVYYfBhrXC80VGJ2zY-33">
          <mxGeometry x="0.1429" y="70" relative="1" as="geometry">
            <mxPoint as="offset" />
          </mxGeometry>
        </mxCell>
        <mxCell id="uPsVYYfBhrXC80VGJ2zY-73" value="!stop_r&amp;nbsp;&lt;div&gt;&amp;amp; !i_lrc&amp;nbsp;&lt;/div&gt;&lt;div&gt;&amp;amp;&amp;nbsp;pause_r&lt;/div&gt;" style="edgeLabel;html=1;align=center;verticalAlign=middle;resizable=0;points=[];" vertex="1" connectable="0" parent="uPsVYYfBhrXC80VGJ2zY-43">
          <mxGeometry x="0.0984" relative="1" as="geometry">
            <mxPoint x="20" y="-7" as="offset" />
          </mxGeometry>
        </mxCell>
        <mxCell id="uPsVYYfBhrXC80VGJ2zY-3" value="WAIT" style="ellipse;whiteSpace=wrap;html=1;aspect=fixed;" vertex="1" parent="1">
          <mxGeometry x="360" y="120" width="100" height="100" as="geometry" />
        </mxCell>
        <mxCell id="uPsVYYfBhrXC80VGJ2zY-6" value="RIGHT" style="ellipse;whiteSpace=wrap;html=1;aspect=fixed;" vertex="1" parent="1">
          <mxGeometry x="600" y="120" width="100" height="100" as="geometry" />
        </mxCell>
        <mxCell id="uPsVYYfBhrXC80VGJ2zY-8" value="" style="endArrow=classic;html=1;rounded=0;entryX=0;entryY=0.5;entryDx=0;entryDy=0;exitX=1;exitY=0.5;exitDx=0;exitDy=0;" edge="1" parent="1" source="uPsVYYfBhrXC80VGJ2zY-2" target="uPsVYYfBhrXC80VGJ2zY-3">
          <mxGeometry width="50" height="50" relative="1" as="geometry">
            <mxPoint x="260" y="170" as="sourcePoint" />
            <mxPoint x="310" y="120" as="targetPoint" />
          </mxGeometry>
        </mxCell>
        <mxCell id="uPsVYYfBhrXC80VGJ2zY-9" value="" style="endArrow=classic;html=1;rounded=0;entryX=0;entryY=0.5;entryDx=0;entryDy=0;" edge="1" parent="1" target="uPsVYYfBhrXC80VGJ2zY-6">
          <mxGeometry width="50" height="50" relative="1" as="geometry">
            <mxPoint x="460" y="169.57" as="sourcePoint" />
            <mxPoint x="560" y="169.57" as="targetPoint" />
          </mxGeometry>
        </mxCell>
        <mxCell id="uPsVYYfBhrXC80VGJ2zY-63" value="!stop_r &amp;amp; i_lrc" style="edgeLabel;html=1;align=center;verticalAlign=middle;resizable=0;points=[];" vertex="1" connectable="0" parent="uPsVYYfBhrXC80VGJ2zY-9">
          <mxGeometry x="-0.3512" relative="1" as="geometry">
            <mxPoint x="25" as="offset" />
          </mxGeometry>
        </mxCell>
        <mxCell id="uPsVYYfBhrXC80VGJ2zY-25" value="" style="endArrow=classic;html=1;rounded=0;entryX=0.5;entryY=0;entryDx=0;entryDy=0;exitX=0.5;exitY=1;exitDx=0;exitDy=0;" edge="1" parent="1" source="uPsVYYfBhrXC80VGJ2zY-6" target="uPsVYYfBhrXC80VGJ2zY-34">
          <mxGeometry width="50" height="50" relative="1" as="geometry">
            <mxPoint x="740" y="270" as="sourcePoint" />
            <mxPoint x="650" y="320" as="targetPoint" />
          </mxGeometry>
        </mxCell>
        <mxCell id="uPsVYYfBhrXC80VGJ2zY-62" value="counter_r ==15" style="edgeLabel;html=1;align=center;verticalAlign=middle;resizable=0;points=[];" vertex="1" connectable="0" parent="uPsVYYfBhrXC80VGJ2zY-25">
          <mxGeometry x="-0.3964" y="-1" relative="1" as="geometry">
            <mxPoint x="21" y="48" as="offset" />
          </mxGeometry>
        </mxCell>
        <mxCell id="uPsVYYfBhrXC80VGJ2zY-31" value="DONE" style="ellipse;whiteSpace=wrap;html=1;aspect=fixed;" vertex="1" parent="1">
          <mxGeometry x="480" y="240" width="100" height="100" as="geometry" />
        </mxCell>
        <mxCell id="uPsVYYfBhrXC80VGJ2zY-29" value="" style="endArrow=classic;html=1;rounded=0;entryX=1;entryY=1;entryDx=0;entryDy=0;exitX=0;exitY=0;exitDx=0;exitDy=0;" edge="1" parent="1" source="uPsVYYfBhrXC80VGJ2zY-34" target="uPsVYYfBhrXC80VGJ2zY-31">
          <mxGeometry width="50" height="50" relative="1" as="geometry">
            <mxPoint x="540" y="440" as="sourcePoint" />
            <mxPoint x="540" y="500" as="targetPoint" />
          </mxGeometry>
        </mxCell>
        <mxCell id="uPsVYYfBhrXC80VGJ2zY-65" value="Text" style="edgeLabel;html=1;align=center;verticalAlign=middle;resizable=0;points=[];" vertex="1" connectable="0" parent="uPsVYYfBhrXC80VGJ2zY-29">
          <mxGeometry x="0.0301" y="-2" relative="1" as="geometry">
            <mxPoint x="-1" as="offset" />
          </mxGeometry>
        </mxCell>
        <mxCell id="uPsVYYfBhrXC80VGJ2zY-47" value="stop_r" style="edgeStyle=orthogonalEdgeStyle;rounded=0;orthogonalLoop=1;jettySize=auto;html=1;exitX=0.5;exitY=1;exitDx=0;exitDy=0;entryX=0.699;entryY=0.949;entryDx=0;entryDy=0;entryPerimeter=0;" edge="1" parent="1">
          <mxGeometry relative="1" as="geometry">
            <mxPoint x="534" y="340" as="sourcePoint" />
            <mxPoint x="193.89999999999998" y="454.9" as="targetPoint" />
            <Array as="points">
              <mxPoint x="524" y="340" />
              <mxPoint x="524" y="520" />
              <mxPoint x="194" y="520" />
            </Array>
          </mxGeometry>
        </mxCell>
        <mxCell id="uPsVYYfBhrXC80VGJ2zY-33" value="PAUSE" style="ellipse;whiteSpace=wrap;html=1;aspect=fixed;" vertex="1" parent="1">
          <mxGeometry x="360" y="360" width="100" height="100" as="geometry" />
        </mxCell>
        <mxCell id="uPsVYYfBhrXC80VGJ2zY-48" value="stop_r" style="edgeStyle=orthogonalEdgeStyle;rounded=0;orthogonalLoop=1;jettySize=auto;html=1;exitX=0.5;exitY=1;exitDx=0;exitDy=0;entryX=0.296;entryY=0.956;entryDx=0;entryDy=0;entryPerimeter=0;" edge="1" parent="1" source="uPsVYYfBhrXC80VGJ2zY-34" target="uPsVYYfBhrXC80VGJ2zY-35">
          <mxGeometry relative="1" as="geometry">
            <Array as="points">
              <mxPoint x="650" y="560" />
              <mxPoint x="150" y="560" />
            </Array>
          </mxGeometry>
        </mxCell>
        <mxCell id="uPsVYYfBhrXC80VGJ2zY-34" value="STORE" style="ellipse;whiteSpace=wrap;html=1;aspect=fixed;" vertex="1" parent="1">
          <mxGeometry x="600" y="360" width="100" height="100" as="geometry" />
        </mxCell>
        <mxCell id="uPsVYYfBhrXC80VGJ2zY-35" value="STOP" style="ellipse;whiteSpace=wrap;html=1;aspect=fixed;" vertex="1" parent="1">
          <mxGeometry x="120" y="360" width="100" height="100" as="geometry" />
        </mxCell>
        <mxCell id="uPsVYYfBhrXC80VGJ2zY-36" value="" style="endArrow=classic;html=1;rounded=0;entryX=1;entryY=1;entryDx=0;entryDy=0;exitX=0;exitY=0;exitDx=0;exitDy=0;" edge="1" parent="1" source="uPsVYYfBhrXC80VGJ2zY-31" target="uPsVYYfBhrXC80VGJ2zY-3">
          <mxGeometry width="50" height="50" relative="1" as="geometry">
            <mxPoint x="430" y="310" as="sourcePoint" />
            <mxPoint x="380" y="260" as="targetPoint" />
          </mxGeometry>
        </mxCell>
        <mxCell id="uPsVYYfBhrXC80VGJ2zY-66" value="!stop_r &amp;amp; !pause_r &amp;amp; !i_lrc" style="edgeLabel;html=1;align=center;verticalAlign=middle;resizable=0;points=[];" vertex="1" connectable="0" parent="uPsVYYfBhrXC80VGJ2zY-36">
          <mxGeometry x="0.0015" y="2" relative="1" as="geometry">
            <mxPoint x="21" y="-12" as="offset" />
          </mxGeometry>
        </mxCell>
        <mxCell id="uPsVYYfBhrXC80VGJ2zY-37" value="" style="endArrow=classic;html=1;rounded=0;entryX=0.5;entryY=1;entryDx=0;entryDy=0;exitX=0.5;exitY=0;exitDx=0;exitDy=0;" edge="1" parent="1" source="uPsVYYfBhrXC80VGJ2zY-35" target="uPsVYYfBhrXC80VGJ2zY-2">
          <mxGeometry width="50" height="50" relative="1" as="geometry">
            <mxPoint x="260" y="250" as="sourcePoint" />
            <mxPoint x="260" y="390" as="targetPoint" />
          </mxGeometry>
        </mxCell>
        <mxCell id="uPsVYYfBhrXC80VGJ2zY-76" value="ε" style="edgeLabel;html=1;align=center;verticalAlign=middle;resizable=0;points=[];" vertex="1" connectable="0" parent="uPsVYYfBhrXC80VGJ2zY-37">
          <mxGeometry x="0.0476" y="1" relative="1" as="geometry">
            <mxPoint as="offset" />
          </mxGeometry>
        </mxCell>
        <mxCell id="uPsVYYfBhrXC80VGJ2zY-38" value="!stop_r &amp; pause_r" style="endArrow=classic;html=1;rounded=0;entryX=1;entryY=0;entryDx=0;entryDy=0;exitX=0;exitY=1;exitDx=0;exitDy=0;" edge="1" parent="1" source="uPsVYYfBhrXC80VGJ2zY-31" target="uPsVYYfBhrXC80VGJ2zY-33">
          <mxGeometry width="50" height="50" relative="1" as="geometry">
            <mxPoint x="490" y="320" as="sourcePoint" />
            <mxPoint x="490" y="460" as="targetPoint" />
          </mxGeometry>
        </mxCell>
        <mxCell id="uPsVYYfBhrXC80VGJ2zY-39" value="" style="endArrow=classic;html=1;rounded=0;entryX=1;entryY=0.5;entryDx=0;entryDy=0;exitX=0;exitY=0.5;exitDx=0;exitDy=0;" edge="1" parent="1" source="uPsVYYfBhrXC80VGJ2zY-34" target="uPsVYYfBhrXC80VGJ2zY-33">
          <mxGeometry width="50" height="50" relative="1" as="geometry">
            <mxPoint x="590" y="410" as="sourcePoint" />
            <mxPoint x="505" y="460" as="targetPoint" />
          </mxGeometry>
        </mxCell>
        <mxCell id="uPsVYYfBhrXC80VGJ2zY-64" value="!stop_r&amp;nbsp;&lt;div&gt;&amp;amp; pause_r&lt;/div&gt;" style="edgeLabel;html=1;align=center;verticalAlign=middle;resizable=0;points=[];" vertex="1" connectable="0" parent="uPsVYYfBhrXC80VGJ2zY-39">
          <mxGeometry x="-0.381" y="1" relative="1" as="geometry">
            <mxPoint x="4" y="-1" as="offset" />
          </mxGeometry>
        </mxCell>
        <mxCell id="uPsVYYfBhrXC80VGJ2zY-40" value="stop_r" style="endArrow=classic;html=1;rounded=0;exitX=0;exitY=0.5;exitDx=0;exitDy=0;" edge="1" parent="1" source="uPsVYYfBhrXC80VGJ2zY-33" target="uPsVYYfBhrXC80VGJ2zY-35">
          <mxGeometry width="50" height="50" relative="1" as="geometry">
            <mxPoint x="515" y="345" as="sourcePoint" />
            <mxPoint x="465" y="395" as="targetPoint" />
          </mxGeometry>
        </mxCell>
        <mxCell id="uPsVYYfBhrXC80VGJ2zY-46" value="stop_r" style="endArrow=classic;html=1;rounded=0;exitX=0;exitY=1;exitDx=0;exitDy=0;" edge="1" parent="1" source="uPsVYYfBhrXC80VGJ2zY-3" target="uPsVYYfBhrXC80VGJ2zY-35">
          <mxGeometry width="50" height="50" relative="1" as="geometry">
            <mxPoint x="280" y="310" as="sourcePoint" />
            <mxPoint x="330" y="260" as="targetPoint" />
          </mxGeometry>
        </mxCell>
        <mxCell id="uPsVYYfBhrXC80VGJ2zY-53" value="" style="curved=1;endArrow=classic;html=1;rounded=0;exitX=0.5;exitY=0;exitDx=0;exitDy=0;entryX=1;entryY=0.5;entryDx=0;entryDy=0;" edge="1" parent="1" source="uPsVYYfBhrXC80VGJ2zY-31" target="uPsVYYfBhrXC80VGJ2zY-31">
          <mxGeometry width="50" height="50" relative="1" as="geometry">
            <mxPoint x="515" y="245" as="sourcePoint" />
            <mxPoint x="585" y="245" as="targetPoint" />
            <Array as="points">
              <mxPoint x="600" y="210" />
            </Array>
          </mxGeometry>
        </mxCell>
        <mxCell id="uPsVYYfBhrXC80VGJ2zY-71" value="!stop_r &amp;amp; !pause_r &amp;amp; i_lrc" style="edgeLabel;html=1;align=center;verticalAlign=middle;resizable=0;points=[];" vertex="1" connectable="0" parent="uPsVYYfBhrXC80VGJ2zY-53">
          <mxGeometry x="0.3478" y="-12" relative="1" as="geometry">
            <mxPoint x="-11" y="23" as="offset" />
          </mxGeometry>
        </mxCell>
        <mxCell id="uPsVYYfBhrXC80VGJ2zY-54" value="" style="curved=1;endArrow=classic;html=1;rounded=0;exitX=1;exitY=1;exitDx=0;exitDy=0;entryX=0;entryY=1;entryDx=0;entryDy=0;" edge="1" parent="1" source="uPsVYYfBhrXC80VGJ2zY-33" target="uPsVYYfBhrXC80VGJ2zY-33">
          <mxGeometry width="50" height="50" relative="1" as="geometry">
            <mxPoint x="375" y="525" as="sourcePoint" />
            <mxPoint x="445" y="525" as="targetPoint" />
            <Array as="points">
              <mxPoint x="410" y="530" />
            </Array>
          </mxGeometry>
        </mxCell>
        <mxCell id="uPsVYYfBhrXC80VGJ2zY-75" value="!i_start &amp;amp; !stop_r" style="edgeLabel;html=1;align=center;verticalAlign=middle;resizable=0;points=[];" vertex="1" connectable="0" parent="uPsVYYfBhrXC80VGJ2zY-54">
          <mxGeometry x="-0.5386" y="-10" relative="1" as="geometry">
            <mxPoint as="offset" />
          </mxGeometry>
        </mxCell>
        <mxCell id="uPsVYYfBhrXC80VGJ2zY-55" value="i_start" style="curved=1;endArrow=classic;html=1;rounded=0;exitX=1;exitY=1;exitDx=0;exitDy=0;entryX=0;entryY=1;entryDx=0;entryDy=0;" edge="1" parent="1">
          <mxGeometry x="0.4024" y="-15" width="50" height="50" relative="1" as="geometry">
            <mxPoint x="135" y="135" as="sourcePoint" />
            <mxPoint x="205" y="135" as="targetPoint" />
            <Array as="points">
              <mxPoint x="170" y="50" />
            </Array>
            <mxPoint as="offset" />
          </mxGeometry>
        </mxCell>
        <mxCell id="uPsVYYfBhrXC80VGJ2zY-56" value="!i_lrc &amp;amp; !pause_r &amp;amp; !stop_r" style="curved=1;endArrow=classic;html=1;rounded=0;exitX=1;exitY=1;exitDx=0;exitDy=0;entryX=0;entryY=1;entryDx=0;entryDy=0;" edge="1" parent="1">
          <mxGeometry x="0.4024" y="-15" width="50" height="50" relative="1" as="geometry">
            <mxPoint x="375" y="135" as="sourcePoint" />
            <mxPoint x="445" y="135" as="targetPoint" />
            <Array as="points">
              <mxPoint x="410" y="50" />
            </Array>
            <mxPoint as="offset" />
          </mxGeometry>
        </mxCell>
        <mxCell id="uPsVYYfBhrXC80VGJ2zY-57" value="" style="curved=1;endArrow=classic;html=1;rounded=0;exitX=1;exitY=1;exitDx=0;exitDy=0;entryX=0;entryY=1;entryDx=0;entryDy=0;" edge="1" parent="1">
          <mxGeometry width="50" height="50" relative="1" as="geometry">
            <mxPoint x="615" y="135" as="sourcePoint" />
            <mxPoint x="685" y="135" as="targetPoint" />
            <Array as="points">
              <mxPoint x="650" y="50" />
            </Array>
          </mxGeometry>
        </mxCell>
        <mxCell id="uPsVYYfBhrXC80VGJ2zY-61" value="counter_r &amp;lt; 15" style="edgeLabel;html=1;align=center;verticalAlign=middle;resizable=0;points=[];" vertex="1" connectable="0" parent="uPsVYYfBhrXC80VGJ2zY-57">
          <mxGeometry x="0.5288" y="-6" relative="1" as="geometry">
            <mxPoint x="-13" y="-7" as="offset" />
          </mxGeometry>
        </mxCell>
        <mxCell id="uPsVYYfBhrXC80VGJ2zY-59" value="i_start" style="text;whiteSpace=wrap;" vertex="1" parent="1">
          <mxGeometry x="260" y="140" width="40" height="30" as="geometry" />
        </mxCell>
        <mxCell id="uPsVYYfBhrXC80VGJ2zY-72" value="" style="endArrow=classic;html=1;rounded=0;entryX=0.292;entryY=0.947;entryDx=0;entryDy=0;entryPerimeter=0;exitX=0.297;exitY=0.062;exitDx=0;exitDy=0;exitPerimeter=0;" edge="1" parent="1" source="uPsVYYfBhrXC80VGJ2zY-33" target="uPsVYYfBhrXC80VGJ2zY-3">
          <mxGeometry width="50" height="50" relative="1" as="geometry">
            <mxPoint x="390" y="350" as="sourcePoint" />
            <mxPoint x="530" y="300" as="targetPoint" />
          </mxGeometry>
        </mxCell>
        <mxCell id="uPsVYYfBhrXC80VGJ2zY-74" value="i_start&lt;div&gt;&lt;br&gt;&lt;/div&gt;" style="edgeLabel;html=1;align=center;verticalAlign=middle;resizable=0;points=[];" vertex="1" connectable="0" parent="uPsVYYfBhrXC80VGJ2zY-72">
          <mxGeometry x="-0.2496" y="2" relative="1" as="geometry">
            <mxPoint x="-18" as="offset" />
          </mxGeometry>
        </mxCell>
      </root>
    </mxGraphModel>
  </diagram>
</mxfile>
